<svg xmlns="http://www.w3.org/2000/svg" width="192" height="139" viewBox="0 0 192 139"><g stroke="#593b29" stroke-width="3.5" stroke-linecap="round" stroke-linejoin="round"><path d="M57 84 L44 120 Q44 132 62 132 L78 129 L85 89 Z" fill="#a8713c" /><path d="M55 116 L59 124 M70 115 L70 124" fill="none" stroke="#d49a51" stroke-width="3"/><path d="M89 88 Q85 114 106 111 Q123 110 121 87" fill="none" /><ellipse cx="23" cy="73" rx="8" ry="12" fill="#c6b795" /><path d="M34 36 L128 36 L133 88 Q123 102 48 96 Q28 90 28 74 L28 48 Z" fill="#78aac4" /><path d="M32 76 Q72 88 130 76 L131 87 Q96 104 47 95 Q32 89 32 76 Z" fill="#54879f" stroke="none"/><ellipse cx="79" cy="35" rx="50" ry="16" fill="#e4d7b6" /><ellipse cx="79" cy="35" rx="39" ry="10" fill="#a4a398" stroke-width="2"/><path d="M45 33 L27 26 Q21 22 29 19 Q43 18 62 28 L59 35 Z" fill="#ded2b3" /><ellipse cx="36" cy="25" rx="7" ry="2.5" fill="#a99c82" stroke-width="2"/><path d="M133 55 L171 55 L173 82 L133 82 Z" fill="#ebd7aa" /><path d="M135 55 L170 56 L171 62 L135 63 Z" fill="#fff0c8" stroke="none"/><path d="M171 53 L184 55 L187 81 L173 84 Z" fill="#e9b451" /><ellipse cx="184" cy="68" rx="3" ry="11" fill="#825739" /><ellipse cx="185.8" cy="68" rx="1.2" ry="8" fill="#4c3729" stroke="none"/><ellipse cx="80" cy="70" rx="24" ry="8" fill="#f2e8cb" stroke="#567f97" stroke-width="2"/><path d="M59 70 L49 62 L50 77 Z" fill="#f2e8cb" stroke="#567f97" stroke-width="2"/><ellipse cx="94" cy="68" rx="2" ry="2" fill="#547188" stroke="none"/></g></svg>
